<svg xmlns="http://www.w3.org/2000/svg" id="Camada_1" data-name="Camada 1" viewBox="0 0 195.05 195.05">
  <defs>
    <style>
      .cls-1 {
        fill: #fff;
      }

      </style>
  </defs>
  <path class="cls-1" d="m120.31,48.74h-45.56c-14.36,0-26,11.64-26,26v45.56c0,14.36,11.64,26,26,26h45.56c14.36,0,26-11.64,26-26v-45.56c0-14.36-11.64-26-26-26Zm-28.04,15.29c3.28-1.87,7.3-1.86,10.56.03l15.49,8.94v24.01l-6.84,3.95v-24.02l-20.79-12s1.56-.9,1.58-.91Zm-26.38,21.36c0-3.8,2.03-7.3,5.31-9.19l15.49-8.95h.01l20.78,12v7.9l-20.79-12-20.8,12.01v-1.77Zm6.84,10.34v24l-1.53-.88c-3.28-1.9-5.31-5.4-5.31-9.19v-17.89l20.8-12,6.84,3.95-20.8,12.01Zm31.64,34.38l-1.54.88c-3.23,1.86-7.22,1.89-10.48.07l-15.62-9.02v-24.01l6.84-3.95v24.02l20.79,12h.01Zm24.79-20.45c0,3.79-2.02,7.29-5.3,9.19l-15.49,8.94-20.8-12.01v-7.89l20.79,12,20.8-12v1.77Zm0-6.39l-20.79,12-6.83-3.94,20.78-12v-24.02s1.57.91,1.58.91c3.26,1.9,5.26,5.39,5.26,9.17v17.88Z" />
</svg>