<?xml version="1.0" encoding="UTF-8"?>
<svg id="Camada_1" data-name="Camada 1" xmlns="http://www.w3.org/2000/svg" viewBox="0 0 477.56 195.13">
  <defs>
    <style>
      .cls-1 {
        fill: #fff;
      }

      .cls-2 {
        fill: #3f21ff;
      }

      .cls-3 {
        fill: none;
      }
    </style>
  </defs>
  <rect class="cls-3" width="477.56" height="195.13"/>
  <g>
    <g>
      <path d="m222.43,75.03l-19.66,45.85c-.28.65-.92,1.07-1.63,1.07h-9.45c-.71,0-1.35-.42-1.63-1.07l-19.66-45.85c-.38-.88.27-1.85,1.22-1.85h5.14c2.86,0,5.44,1.72,6.54,4.35l13.34,31.82,13.77-31.89c1.12-2.6,3.68-4.28,6.51-4.28h4.28c.96,0,1.6.98,1.22,1.85Z"/>
      <path d="m234.62,119.4c-3.96-2.13-7.05-5.1-9.27-8.91-2.22-3.81-3.33-8.11-3.33-12.93s1.11-9.1,3.33-12.88c2.22-3.78,5.31-6.73,9.27-8.86,3.96-2.13,8.4-3.2,13.34-3.2s9.47,1.07,13.43,3.2c3.96,2.13,7.05,5.09,9.27,8.86,2.22,3.78,3.33,8.07,3.33,12.88s-1.11,9.12-3.33,12.93c-2.22,3.81-5.31,6.78-9.27,8.91-3.96,2.13-8.44,3.2-13.43,3.2s-9.38-1.06-13.34-3.2Zm23.75-10.78c2.74-2.8,4.11-6.49,4.11-11.05s-1.37-8.25-4.11-11.05c-2.74-2.8-6.21-4.2-10.41-4.2s-7.66,1.4-10.37,4.2c-2.71,2.8-4.07,6.49-4.07,11.05s1.35,8.25,4.07,11.05c2.71,2.8,6.17,4.2,10.37,4.2s7.67-1.4,10.41-4.2Z"/>
      <path d="m306.82,119.08l-10.39-14.03-10.48,14.05c-1.34,1.8-3.45,2.85-5.69,2.85h-6.35c-1.1,0-1.73-1.27-1.06-2.14l17.36-22.62-16.57-21.89c-.66-.88-.04-2.13,1.06-2.13h6.47c2.24,0,4.34,1.05,5.68,2.84l9.84,13.14,9.84-13.14c1.34-1.79,3.44-2.84,5.68-2.84h6.09c1.1,0,1.73,1.26,1.06,2.14l-16.63,21.7,17.45,22.8c.67.88.05,2.14-1.06,2.14h-6.61c-2.25,0-4.36-1.07-5.7-2.87Z"/>
      <path d="m427.01,73.17c.98,0,1.77.79,1.77,1.77v39.61c0,17.17-8.44,25.76-25.3,25.76-4.45,0-8.69-.59-12.74-1.78-3.6-1.06-6.64-2.54-9.11-4.44-.52-.4-.64-1.15-.3-1.71l.87-1.45c1.86-3.13,5.76-4.26,9.09-2.79.69.3,1.41.59,2.15.85,2.98,1.03,6.12,1.55,9.41,1.55,4.99,0,8.66-1.2,11.01-3.61,2.34-2.41,3.52-6.1,3.52-11.1v-2.28c-1.83,2.01-4.05,3.55-6.67,4.61-2.62,1.07-5.45,1.6-8.5,1.6-6.52,0-11.65-1.8-15.39-5.39-3.75-3.59-5.62-8.98-5.62-16.17v-23.26c0-.98.79-1.77,1.77-1.77h2.55c3.92,0,7.09,3.18,7.09,7.09v16.47c0,4.33.99,7.57,2.97,9.73,1.98,2.16,4.8,3.24,8.45,3.24,4.08,0,7.32-1.25,9.73-3.75,2.41-2.5,3.61-6.12,3.61-10.87v-14.83c0-3.92,3.18-7.09,7.09-7.09h2.55Z"/>
      <path d="m350.52,122.7c-8.26,0-14.18-1.7-17.78-5.09-3.6-3.39-5.39-9-5.39-16.82v-25.85c0-.98.79-1.77,1.77-1.77h2.81c3.92,0,7.09,3.18,7.09,7.09v17.91c0,5.41.87,9.26,2.6,11.54,1.74,2.28,4.7,3.42,8.89,3.42s7.15-1.14,8.89-3.42c1.74-2.28,2.6-6.13,2.6-11.54v-17.91c0-3.92,3.18-7.09,7.09-7.09h2.81c.98,0,1.77.79,1.77,1.77v25.85c0,7.82-1.8,13.42-5.39,16.82-3.6,3.39-9.52,5.09-17.78,5.09Z"/>
    </g>
    <g>
      <rect class="cls-2" x="48.78" y="48.78" width="97.56" height="97.56" rx="26" ry="26"/>
      <g>
        <path class="cls-1" d="m129.2,107.93v1.77c0,3.79-2.02,7.29-5.3,9.19l-15.49,8.94-20.8-12.01v-7.89l20.79,12,20.8-12Z"/>
        <path class="cls-1" d="m104.41,130.14h0s-1.54.89-1.54.89c-3.23,1.86-7.22,1.89-10.48.07l-15.62-9.02v-24.01l6.84-3.95v24.02l20.79,12h.01Z"/>
        <path class="cls-1" d="m118.36,73.04v24.01l-6.84,3.95v-24.02l-20.79-12s1.56-.9,1.58-.91c3.28-1.87,7.3-1.86,10.56.03l15.49,8.94Z"/>
        <path class="cls-1" d="m107.52,79.29v7.9l-20.79-12-20.8,12.01v-1.77c0-3.8,2.03-7.3,5.31-9.19l15.49-8.95h0l20.78,12Z"/>
        <path class="cls-1" d="m93.57,83.76l-20.8,12.01v24l-1.53-.88c-3.28-1.9-5.31-5.4-5.31-9.19v-17.89l20.8-12,6.84,3.95Z"/>
        <path class="cls-1" d="m129.2,85.43v17.88l-20.79,12-6.83-3.94,20.78-12v-24.02s1.57.91,1.58.91c3.26,1.9,5.26,5.39,5.26,9.17Z"/>
      </g>
    </g>
  </g>
</svg>